<?xml version="1.0" encoding="utf-8"?>
<!-- Generator: Adobe Illustrator 26.4.1, SVG Export Plug-In . SVG Version: 6.00 Build 0)  -->
<svg version="1.1" id="Layer_1" xmlns="http://www.w3.org/2000/svg" xmlns:xlink="http://www.w3.org/1999/xlink" x="0px" y="0px"
	 viewBox="0 0 100 100.9" style="enable-background:new 0 0 100 100.9;" xml:space="preserve">
<g>
	<g>
		<g>
			<path  d="M38,93.3L7.4,62.7c-1.6-1.6-4.3-1.6-5.9,0c-1.6,1.6-1.6,4.3,0,5.9l30.6,30.6c0.8,0.8,1.9,1.2,3,1.2c1.1,0,2.1-0.4,3-1.2
				C39.7,97.6,39.7,94.9,38,93.3z"/>
			<path d="M99.6,40.6L94.8,10c-0.4-2.4-2.2-4.3-4.6-4.6L59.6,0.5c-1.8-0.3-3.5,0.3-4.8,1.6L9.6,47.3c-2.2,2.2-2.2,5.7,0,7.9
				L45,90.6c2.2,2.2,5.7,2.2,7.9,0l45.2-45.2C99.3,44.1,99.9,42.3,99.6,40.6z M83.6,25c-2.2,2.2-5.7,2.2-7.9,0
				c-2.2-2.2-2.2-5.7,0-7.9c2.2-2.2,5.7-2.2,7.9,0C85.8,19.3,85.8,22.8,83.6,25z"/>
		</g>
	</g>
</g>
</svg>
